<svg id="Group_26" data-name="Group 26" xmlns="http://www.w3.org/2000/svg" width="16.684" height="16.68" viewBox="0 0 16.684 16.68">
  <path id="Path_191" data-name="Path 191" d="M16.494,14.769,11.45,9.726a.65.65,0,0,0-.889-.029L9.85,8.985a5.512,5.512,0,0,0-.434-7.311h0a5.515,5.515,0,1,0-.488,8.232l.712.712a.651.651,0,0,0,.029.889l5.043,5.043a.652.652,0,0,0,.922,0l.43-.43h0l.43-.43A.652.652,0,0,0,16.494,14.769Zm-8-6.218a4.211,4.211,0,1,1,0-5.956A4.209,4.209,0,0,1,8.494,8.551Z" transform="translate(-0.001 -0.061)"/>
</svg>
