<svg xmlns="http://www.w3.org/2000/svg" width="50.948" height="40.334" viewBox="0 0 50.948 40.334">
  <g id="wallet" transform="translate(0 -53.333)">
    <g id="Group_6259" data-name="Group 6259" transform="translate(40.334 72.43)">
      <g id="Group_6258" data-name="Group 6258" transform="translate(0 0)">
        <circle id="Ellipse_95" data-name="Ellipse 95" cx="1.061" cy="1.061" r="1.061"/>
      </g>
    </g>
    <g id="Group_6261" data-name="Group 6261" transform="translate(0 53.333)">
      <g id="Group_6260" data-name="Group 6260" transform="translate(0 0)">
        <path id="Path_579" data-name="Path 579" d="M41.4,66.07h9.553V60.763a7.438,7.438,0,0,0-7.43-7.43H7.43A7.438,7.438,0,0,0,0,60.763V86.237a7.438,7.438,0,0,0,7.43,7.43H43.518a7.438,7.438,0,0,0,7.43-7.43V80.93H41.4a7.43,7.43,0,1,1,0-14.86Z" transform="translate(0 -53.333)"/>
      </g>
    </g>
    <g id="Group_6263" data-name="Group 6263" transform="translate(36.088 68.193)">
      <g id="Group_6262" data-name="Group 6262" transform="translate(0 0)">
        <path id="Path_580" data-name="Path 580" d="M367.974,202.667a5.307,5.307,0,0,0,0,10.614h9.553V202.667Zm0,8.491a3.184,3.184,0,1,1,3.184-3.184A3.188,3.188,0,0,1,367.974,211.158Z" transform="translate(-362.667 -202.667)"/>
      </g>
    </g>
  </g>
</svg>
